<svg xmlns="http://www.w3.org/2000/svg" width="60" height="30" viewBox="0 0 60 30">
  <path fill="#012169" d="M0 0h60v30H0z"/>
  <path fill="#fff" d="M0 0h6.708L60 26.646V30h-6.708L0 3.354zm60 0v3.354L6.708 30H0v-3.354L53.292 0z"/>
  <path fill="#C8102E" d="M0 0l30 15h-4.472L0 2.236zm60 0L30 15v-2.236L55.528 0zm0 30L30 15h4.472L60 27.764zM0 30l30-15v2.236L4.472 30z"/>
  <path fill="#fff" d="M25 0h10v10h25v10H35v10H25V20H0V10h25z"/>
  <path fill="#C8102E" d="M27 0h6v12h27v6H33v12h-6V18H0v-6h27z"/>
</svg>
