<svg fill="none" height="24" viewBox="0 0 24 24" width="24" xmlns="http://www.w3.org/2000/svg"><path d="m8.38028 8.85335c.69599 1.44965 1.64482 2.80825 2.84632 4.00985 1.2016 1.2016 2.5603 2.1504 4.0099 2.8464.1247.0598.187.0898.2659.1128.2804.0817.6246.023.862-.147.0669-.0479.124-.105.2383-.2193.3496-.3497.5244-.5245.7002-.6387.6629-.431 1.5175-.431 2.1804 0 .1758.1142.3506.289.7002.6387l.1948.1948c.5315.5315.7972.7972.9415 1.0826.2871.5675.2871 1.2378 0 1.8054-.1443.2853-.41.5511-.9415 1.0825l-.1576.1576c-.5296.5297-.7944.7945-1.1545.9967-.3995.2244-1.02.3858-1.4782.3844-.4129-.0012-.6952-.0813-1.2596-.2415-3.0334-.861-5.8958-2.4854-8.28374-4.8734-2.38798-2.388-4.01245-5.2504-4.87342-8.28376-.16021-.56445-.24032-.84667-.24154-1.25962-.00137-.45822.15999-1.07871.38441-1.47822.20225-.36003.46706-.62484.99669-1.15447l.15763-.15763c.53144-.53144.79717-.79717 1.08255-.94151.56756-.28707 1.23782-.28707 1.80538 0 .28538.14434.55111.41007 1.08255.94151l.19487.19487c.3496.3496.52441.52441.63869.70018.431.6629.431 1.51748 0 2.18037-.11428.17577-.28909.35058-.63869.70018-.11431.11432-.17147.17147-.21931.23828-.17001.23743-.22871.58169-.14699.86205.023.07889.05293.14123.1128.26592z" stroke="#171717" stroke-linecap="round" stroke-linejoin="round" stroke-width="2"/></svg>