<svg preserveAspectRatio="none" overflow="visible" style="display: block;" width="99.6257" height="88.3189" viewBox="0 0 99.6257 88.3189" fill="none" xmlns="http://www.w3.org/2000/svg">
<g id="Frame 78">
<path id="Subtract" d="M63.5467 7.83082C66.8463 7.66112 69.6623 10.1915 69.8457 13.4903L70.8964 32.3793L78.4996 31.9882C80.3327 31.8939 81.995 33.0597 82.531 34.8152L86.2398 46.959C86.3739 47.3977 86.789 47.6886 87.2471 47.6651L90.1729 47.5146C91.8275 47.4295 93.2378 48.702 93.323 50.3565L94.1179 65.8107C94.2029 67.4654 92.9306 68.8758 91.2759 68.9609L83.5498 69.3582C83.8545 75.2825 79.3024 80.328 73.3782 80.6329C67.4538 80.9376 62.4083 76.3856 62.1035 70.4613L40.6573 71.5643C40.9619 77.4885 36.4108 82.534 30.4866 82.8389C24.5623 83.1436 19.5168 78.5916 19.212 72.6673L14.4809 72.9106C11.1717 73.0807 8.35093 70.5359 8.18068 67.2267L7.38584 51.7725L5.5002 16.8398C5.32133 13.5252 7.86827 10.6947 11.1833 10.524L63.5467 7.83082ZM73.0677 36.665C71.9645 36.7217 71.1163 37.662 71.173 38.7651L71.5692 46.4678C71.626 47.5709 72.5662 48.4192 73.6693 48.3624L79.793 48.0475C81.1058 47.98 81.998 46.6857 81.5938 45.4349L79.1379 37.8382C78.8593 36.9764 78.036 36.4095 77.1316 36.456L73.0677 36.665Z" fill="#67B5FD"/>
</g>
</svg>
