<svg preserveAspectRatio="none" overflow="visible" style="display: block;" width="58.7705" height="91.1988" viewBox="0 0 58.7705 91.1988" fill="none" xmlns="http://www.w3.org/2000/svg">
<g id="Group 3222">
<path id="Vector" d="M47.8387 38.6046C49.7687 38.2914 51.5872 39.6021 51.9004 41.5321L58.1875 80.2783C58.5093 82.2613 57.5059 84.0759 55.9479 84.3287L16.4319 90.7408C14.8738 90.9936 13.3482 89.5894 13.0264 87.6064L6.73923 48.8602C6.42606 46.9302 7.73677 45.1117 9.66679 44.7985L47.8387 38.6046ZM21.9089 53.0829C21.6559 51.524 20.1872 50.4654 18.6283 50.7183C17.0694 50.9713 16.0108 52.44 16.2637 53.9989L17.9788 64.5682C18.2317 66.1271 19.7005 67.1858 21.2593 66.9328C22.8182 66.6799 23.8769 65.2111 23.6239 63.6522L21.9089 53.0829ZM42.3386 0.458006C43.8966 0.205187 45.4223 1.60938 45.744 3.59236L49.8403 28.8367C50.1535 30.7667 48.8428 32.5851 46.9128 32.8983L8.74086 39.0923C6.81084 39.4055 4.99237 38.0948 4.6792 36.1647L0.582917 10.9205C0.261147 8.93747 1.26451 7.12291 2.82257 6.87009L42.3386 0.458006ZM16.3196 18.6377C16.0667 17.0789 14.5979 16.0202 13.039 16.2732C11.4802 16.5261 10.4215 17.9949 10.6745 19.5537L12.0901 28.278C12.3431 29.8369 13.8118 30.8956 15.3707 30.6426C16.9296 30.3897 17.9882 28.9209 17.7353 27.362L16.3196 18.6377Z" fill="#FFBF3C"/>
</g>
</svg>
