<svg preserveAspectRatio="none" overflow="visible" style="display: block;" width="14.6744" height="4.77612" viewBox="0 0 14.6744 4.77612" fill="none" xmlns="http://www.w3.org/2000/svg">
<g id="Group">
<path id="Vector" d="M1.60255 4.64994L0 0.09375H1.13122L2.16816 3.20453L3.20503 0.09375H4.3677L2.76515 4.64994H1.60255Z" fill="white"/>
<path id="Vector_2" d="M4.46094 2.38806C4.46094 1.66536 4.64948 1.09976 5.02655 0.659854C5.40361 0.219946 5.90638 0 6.53482 0C7.16326 0 7.66602 0.219946 8.04309 0.659854C8.42015 1.09976 8.6087 1.66536 8.6087 2.38806C8.6087 3.11077 8.42015 3.67636 8.04309 4.11627C7.66602 4.55618 7.16326 4.77612 6.53482 4.77612C5.90638 4.77612 5.40361 4.55618 5.02655 4.11627C4.68091 3.64494 4.46094 3.07935 4.46094 2.38806ZM7.54031 2.38806C7.54031 1.94815 7.44603 1.63395 7.28892 1.38257C7.10038 1.1312 6.88049 1.00549 6.56627 1.00549C6.28347 1.00549 6.03208 1.1312 5.84355 1.38257C5.68644 1.63395 5.59216 1.94815 5.59216 2.38806C5.59216 2.82797 5.68644 3.14217 5.84355 3.39355C6.03208 3.64493 6.25205 3.73922 6.56627 3.73922C6.88049 3.73922 7.10038 3.6135 7.28892 3.39355C7.44603 3.14217 7.54031 2.79655 7.54031 2.38806Z" fill="white"/>
<path id="Vector_3" d="M9.46094 4.64994V0.09375H10.5921V3.61303H12.446V4.64994H9.46094Z" fill="white"/>
<path id="Vector_4" d="M13.4805 4.64893V3.48633H14.6744V4.64893H13.4805Z" fill="white"/>
</g>
</svg>
